# xmcd
#
# Track frame offsets: 
#        150
#        10770
#        23412
#        37142
#        48605
#        59770
#        72350
#        85657
#        97967
#        110372
#        119197
#        131227
#        146430
#        162320
#        175525
#        187852
#        201055
#        212555
#        223907
#        234887
#        247830
#        260042
#        273105
#        291742
#        303485
#        316030
#        330892
#        342100
#
# Disc length: 4798 seconds
#
# Revision: 2
# Processed by: cddbd v1.5.2PL0 Copyright (c) Steve Scherf et al.
# Submitted via: ExactAudioCopyFreeDBPlugin 1.0
#
DISCID=9612bc1c
DTITLE=Various Artist - Sweet Soul Music:  411 Scorching Classics, 19
DTITLE=61-1975 [Bear Family]
DYEAR=2008
DGENRE=Soul
TTITLE0=Barbara George with The A.F.O. Studio Combo - I Know (You Dont
TTITLE0='t Love Me No More)
TTITLE1=Gladys Knight and The Pips - Letter Full of Tears
TTITLE2=The Sensations - Let Me In
TTITLE3=Gene Chandler - Duke of Earl
TTITLE4=Solomon Burke - Cry to Me
TTITLE5=Etta James with The Riley Hampton Orchestra - Something's Got 
TTITLE5=a Hold on Me
TTITLE6=The Falcons and Band (Ohio Untouchables) - I Found a Love
TTITLE7=Arthur Alexander - You Better Move On
TTITLE8=King Curtis and The Noble Knights - Soul Twist
TTITLE9=Clyde McPhatter - Lover Please
TTITLE10=The Shirelles - Soldier Boy
TTITLE11=Chuck Jackson - Any Day Now (My Wild Beautiful Bird)
TTITLE12=James Brown and The Famous Flames - Night Train
TTITLE13=Joe Henderson - Snap Your Fingers
TTITLE14=The Marvelettes - Playboy
TTITLE15=Don Gardner and Dee Dee Ford - I Need Your Loving
TTITLE16=The Isley Brothers - Twist and Shout
TTITLE17=John Lee Hooker - Boom Boom
TTITLE18=Little Eva - The Loco-Motion
TTITLE19=Booker T. and The M.G.'s - Green Onions
TTITLE20=Mary Wells and The Love-Tones - You Beat Me to the Punch
TTITLE21=The Contours - Do You Love Me
TTITLE22=Bobby Bland - Stormy Monday Blues
TTITLE23=The Drifters - Up on the Roof
TTITLE24=Marvin Gaye and The Vandellas - Stubborn Kind of Fellow
TTITLE25=Esther Phillips - Release Me
TTITLE26=The Cookies - Chains
TTITLE27=Jimmy McGriff - I've Got a Woman, Part 1
EXTD=
EXTT0=
EXTT1=
EXTT2=
EXTT3=
EXTT4=
EXTT5=
EXTT6=
EXTT7=
EXTT8=
EXTT9=
EXTT10=
EXTT11=
EXTT12=
EXTT13=
EXTT14=
EXTT15=
EXTT16=
EXTT17=
EXTT18=
EXTT19=
EXTT20=
EXTT21=
EXTT22=
EXTT23=
EXTT24=
EXTT25=
EXTT26=
EXTT27=
PLAYORDER=
